<svg id="Capa_1" data-name="Capa 1" xmlns="http://www.w3.org/2000/svg" viewBox="0 0 220 376"><title>cactusblanco</title><path d="M86.71,326c5.06-2,7.16-5.42,6.15-11-.51-2.8-.14-5.61-4.65-3.77.92-2.85,4.39-2.37,4.34-5.19-.07-4.4.31-8.84-.15-13.19-.25-2.42-10.34-4.81-15.82-3.75,4.64-3.77,1.56-6-1.09-7.53-3.61-2.06-3.75-6.27-6.4-8.82-1.44-1.38-1.73-4.12-4.73-3.63-.92.15-.93-.54-.74-1.61.84-4.77-2.95-9.59-8.71-10.58,3.19-1.39,3.44-3.19,1.86-5.59-3.49-5.28-4-11.82-7.21-17.31-.78-1.35,1.16-4.3.16-6.12-1.68-3-2-5.46,0-8.64.67-1.08.39-3.34,1.09-5.19,1.53-4,4-7.71,8-7.89S66,209.32,68,213a26.06,26.06,0,0,1,2.28,4.42c.91,2.74,2.22,4.28,5.77,2.37-4.46,4.32-1.67,8.26,0,11.81,1.47,3.13,3.83-2,5.83,0-5.44,8.12-4.81,12.84,2.25,13.88-5,3.66-1.22,7,.62,9.76,3,4.54,4.5,10,8.63,14-.13-6.31,3.15-12.89-2-18.85,2.83,1.24,3.59.1,3.67-2.89.23-9,1.43-17.91,1.09-26.83-.37-9.85,1.9-19.33,2.53-29,.14-2.18.34-4-2.21-4.73-7.12-2-11.82-7.45-17.29-11.82-1.71-1.37-3.33-4.42-5.66,1,.14-6.52-9-17.21-14.42-18.39,3.14-3.76-3-14.69-10-16.39,4.52-1.19,3.68-3.5,2.52-6.26-1.46-3.52-2.45-7.23-3.64-10.86-1.32-1.18.13-2.91-.83-4.16-.66-2.39-1.51-4.76-2-7.2-.7-3.92-1.33-7.77-6.14-9.71,3.61.32,4.66-1,4.61-4.21-.08-5.34,1.11-10.23,6.85-12.67,3.15-1.34-.84-3.94,1.39-6,4.5,9.08,15.63,13.42,17.07,25.13l4.88-2.46c.6,3-4,2.92-3,5.83,2,5.28,4,10.53,6,15.8,6.25-.28,1.12,3.23,1.68,4.84,1.63,4.69,3.53,9.29,5.31,13.93.28.72.6,1.08,1.41.62,3.4-1.93,2.86.16,2.12,2.18-1.29,3.53,2.87,11,6.59,11.31,1.47.12,1.75,1.33,1.59,1.72-2,4.88,2.31,6.47,5,10.41.08-4.33,2-7.43-.89-10.33-.17-.18-.82-.91.17-.92,3.68-.06,1.62-3.29,2.68-4.81,1.78-2.55-1.49-5.45,1.15-8.62,2.08-2.49,1.89-6.9,2.6-10.48.35-1.72,1.32-3.55-.39-5.14-.48-.45-1-1,.1-1.23,3.52-.65,2.52-3.83,3-5.87,1.87-7.51,4.33-14.5,11.3-18.94,1.34-.85,1.2-1.07,1.84-5.14,2,1,1.63,3.78,4,4.64,2.74,1,3.15-1.4,4.72-2.55,1.52,2.89,2.34,5.88,3.88,8.59,1.29,2.25,5.18,3.36,4.59,4.56-1.43,2.87-.09,5,.71,7,3.55,9.28,2.25,19.13,3.89,28.58.79,4.57.09,8.87.12,13.28,0,2.12.59,3.16,2.84,2.7,1.05-.49,1.16.05,1,.9-2.12,1.41-3.69,2.91-3.81,5.9s.4,4.32,4.19,3.64c-4.36,1.77-4.46,5-4.37,8.41.29,11.14-1.38,22.24-.69,34.07,4.83-5.08,6.58-11.42,9.89-16.78.47-.66.08-1.62.8-2.18,1.63-4.25,5.44-7.95,2.63-13.27-1.16-2.2,3,.26,2.95-2.72-.09-3.91,1.73-7.85,1.73-11.78,0-4.6,2.73-9.22-.43-14-1.45-2.19,2,.48,2.11-1.31.19-5.62,1.91-11.16,1-16.83-.16-1-1.28-1.79-2.54-3.44,3.07,1.07,3.59.13,3.83-2.14.64-6,1.85-11.83,2.67-17.77.73-5.33,3-10,5.35-14.77.37-.72.3-.86,1.15-.78a20.92,20.92,0,0,1,18,15c.92,3.22,1.73,6,6.42,5.7-5.07.93-5.43,4.22-4.66,7.77.65,3,3.48.34,5.2,1.89-4.13,1.22-6.43,4.24-6,8.31.38,3.76,4.71-.52,5.91,2.54a9.1,9.1,0,0,1-4.76,2.44,2.64,2.64,0,0,0-2.5,2.41c-1.5,6.17-1.6,6.15,5.11,6.19,0,1.67-1.46,1.63-2.4,1.88-5.06,1.37-6.82,4.23-5.74,9.63.06.29,1.16.37.19.86-.44.22-1.12.21-1.36.54-1.29,1.78-2.44,4-1.59,6,.68,1.57,2.66-.21,4.06,0-1.55,4.44-7.32,5.41-8.49,10.27-.36,1.51-1.4,2.48,1.33,2.88s1.17,2.59,0,2.91c-5.68,1.56-6.22,6.73-8.3,10.91,1.28,1.64,3.69.39,5,2.29-1,.45-2,1.21-2.94,1.28-4.91.37-6.4,3-5.42,7.55.29,1.36-1,1.3-1.64,1.91-2.64,2.76-6.48,4.91-5.17,9.77.14.5.09.77-.57.87-5.63.91-6.5,6-9,9.86-1.41,2.18-4.47,3.31-5.8,5.51-1.73,2.87-8.93,3.86-3.9,9.73.24.27-2.1,3.94-1.39,6.23,1.27,4.06.33,8,0,12-.18,2.49-.58,5.37,4.42,2.63-6.59,5-4,11.24-5.37,17.93,2.84-3.1,5.92-4.4,5.34-8.23,0-.29.55-1,.61-.94,2.53,1.13,3-1.33,3.48-2.46,3.35-7.25,10.24-12,13.39-19.39.29-.67,12.05-4.22,12.72-3.94,1.48.62,1.79,1.93,1.71,3.3-.18,2.64-.94,5.32-.67,7.91.77,7.51-5.17,12.19-7.46,18.4-1,2.75-1.31,4.28,2.39,4.83-8.15,3.55-12.11,9.32-8.64,12.05-4.81.8-11.42,6.45-12.15,10.56-.1.52-.17,1-.56.85-4.54-2.18-6.33,3.48-10.15,3.5-1.5,0-2.32,1.32-2.1,2.84.59,4.11-4.19,8.47.58,12.37-4,.46-1.51,4.4-3.31,6.54s-3.44,6.33-1.3,10c1,1.78-.73.85-1.15,1.2-3,2.59-2.92,8.34.23,9.89.05,1.9-1.09,1.35-2.12,1-3.38,0-3,3-3,4.7s2.3,1,3.59,1.31c11.16,2.89,22.42,5.57,29,17.81-30.57-.49-60.78-.77-91.56,6.11,5.43-11.41,14.39-14.77,24.07-17.08,1.22-.29,2.81.06,3.17-1.73.18-.87-.57-1.16-3.49-1.42,3.25-3,3-7-.53-9.71-1,.25-1.35-.21-1.14-1.18,1.37-1,2.69-2,2-4-1.88-5.23-.81-10.91-2.74-16.28-.6-1.69-.14-4.77-.25-7.23-.12-2.64-1.84-1-2.82-1.32A3.37,3.37,0,0,1,86.71,326Z" style="fill:#fff"/><path d="M47.1,120c1.42,1.16.78,2.73.83,4.16-2.2-.21-4.72,1.62-6.58-.91C42.34,120.34,47.07,124.44,47.1,120Z" style="fill:#fff"/><path d="M133.83,356.13l2.12-1,4.66,1C138.24,357.18,136,357.38,133.83,356.13Z" style="fill:#fff"/><path d="M93.93,354.94l1.14,1.18c-1.08,1-2.34.76-3.65.75A2.12,2.12,0,0,1,93.93,354.94Z" style="fill:#fff"/><path d="M86.71,326l3.4.15a4.18,4.18,0,0,1-3.67.84C85.1,326.58,85.56,326,86.71,326Z" style="fill:#fff"/><path d="M153.9,198.88l-.8,2.18c-.33-1-1.5-1.85-.78-3.14Z" style="fill:#fff"/><path d="M147.89,165.82l-1-.9a3.78,3.78,0,0,1,3.15-.83C149.79,165.34,148.75,165.46,147.89,165.82Z" style="fill:#fff"/></svg>