<svg id="Capa_1" data-name="Capa 1" xmlns="http://www.w3.org/2000/svg" viewBox="0 0 220 376"><title>cactusblancoinv</title><path d="M139.6,50.34c-5.06,2-7.16,5.41-6.15,11,.51,2.8.14,5.61,4.65,3.77-.92,2.85-4.39,2.36-4.34,5.19.07,4.4-.31,8.84.15,13.19.25,2.42,10.34,4.81,15.82,3.75-4.64,3.77-1.56,6,1.09,7.53,3.6,2.06,3.75,6.27,6.4,8.82,1.44,1.38,1.73,4.12,4.73,3.63.92-.15.93.54.74,1.61-.84,4.77,2.95,9.59,8.71,10.57-3.19,1.4-3.44,3.2-1.86,5.6,3.49,5.28,4,11.82,7.21,17.31.78,1.35-1.16,4.29-.16,6.11,1.68,3.06,2,5.47,0,8.65-.67,1.08-.39,3.34-1.09,5.19-1.53,4-4,7.7-8,7.89s-7.15-3.15-9.23-6.8a26.44,26.44,0,0,1-2.28-4.42c-.91-2.74-2.22-4.28-5.77-2.37,4.46-4.32,1.67-8.26,0-11.81-1.47-3.13-3.83,2-5.83,0,5.44-8.13,4.81-12.84-2.25-13.89,5-3.65,1.22-7-.62-9.75-3-4.54-4.5-10-8.63-14,.13,6.3-3.15,12.89,2,18.84-2.83-1.23-3.59-.09-3.67,2.9-.23,9-1.43,17.91-1.09,26.83.37,9.84-1.9,19.33-2.53,29-.15,2.17-.34,4,2.21,4.72,7.12,2,11.82,7.46,17.29,11.83,1.71,1.36,3.33,4.41,5.66-1-.14,6.53,9.05,17.22,14.42,18.4-3.14,3.76,3,14.69,10,16.39-4.52,1.18-3.68,3.49-2.52,6.26,1.46,3.52,2.45,7.23,3.64,10.85,1.32,1.19-.13,2.91.83,4.16.66,2.4,1.51,4.77,1.95,7.21.7,3.92,1.33,7.77,6.14,9.7-3.61-.31-4.66,1-4.61,4.22.08,5.34-1.11,10.23-6.85,12.67-3.15,1.34.84,3.94-1.39,5.95-4.5-9.07-15.63-13.41-17.07-25.13l-4.88,2.47c-.6-3,4-2.92,2.95-5.83-2-5.28-4-10.53-6-15.8-6.25.28-1.12-3.23-1.68-4.84-1.63-4.7-3.53-9.29-5.31-13.94-.28-.71-.6-1.07-1.41-.61-3.4,1.93-2.86-.16-2.12-2.18,1.29-3.53-2.87-11-6.59-11.31-1.47-.12-1.75-1.33-1.59-1.72,2-4.89-2.31-6.47-5-10.41-.08,4.33-2,7.43.89,10.33.17.18.82.9-.17.92-3.68.06-1.62,3.29-2.68,4.81-1.78,2.54,1.49,5.45-1.15,8.62-2.08,2.48-1.89,6.9-2.6,10.48-.35,1.72-1.32,3.55.39,5.14.48.44,1,1-.1,1.22-3.52.66-2.52,3.84-3,5.88-1.87,7.51-4.33,14.49-11.3,18.94-1.34.85-1.2,1.07-1.84,5.13-2-1-1.63-3.77-4-4.64-2.74-1-3.15,1.41-4.72,2.55-1.52-2.88-2.34-5.88-3.88-8.59-1.29-2.24-5.18-3.35-4.59-4.55,1.43-2.87.09-5-.71-7.05-3.55-9.28-2.25-19.14-3.89-28.59-.79-4.56-.09-8.86-.12-13.27,0-2.13-.59-3.17-2.84-2.7-1,.48-1.16,0-1-.9,2.12-1.41,3.69-2.92,3.81-5.9s-.4-4.32-4.19-3.64c4.36-1.77,4.46-5,4.37-8.41-.29-11.14,1.38-22.24.69-34.07-4.83,5.08-6.58,11.41-9.89,16.78-.47.65-.08,1.62-.8,2.17-1.63,4.26-5.44,8-2.63,13.28,1.16,2.19-3-.26-3,2.72.09,3.91-1.73,7.85-1.73,11.77,0,4.61-2.73,9.22.43,14,1.45,2.2-2-.47-2.11,1.32-.19,5.62-1.91,11.16-1,16.83.16,1,1.28,1.79,2.54,3.44-3.07-1.07-3.59-.13-3.83,2.14-.64,6-1.85,11.83-2.67,17.76-.73,5.33-3,10.06-5.35,14.77-.37.73-.3.87-1.15.79a20.92,20.92,0,0,1-18-15.06c-.92-3.21-1.73-6-6.42-5.69,5.07-.94,5.43-4.23,4.66-7.77-.65-3-3.48-.34-5.2-1.89,4.13-1.22,6.43-4.24,6-8.31-.37-3.76-4.7.51-5.9-2.55a9.16,9.16,0,0,1,4.76-2.43,2.64,2.64,0,0,0,2.5-2.42c1.5-6.16,1.6-6.14-5.11-6.18,0-1.67,1.46-1.63,2.4-1.88,5.06-1.37,6.82-4.23,5.74-9.64-.06-.28-1.16-.36-.19-.85.44-.23,1.12-.21,1.36-.54,1.29-1.78,2.44-4,1.59-6-.68-1.57-2.66.21-4.06,0,1.55-4.45,7.32-5.42,8.49-10.27.36-1.51,1.4-2.48-1.33-2.88s-1.17-2.59,0-2.91c5.68-1.56,6.22-6.73,8.3-10.91-1.28-1.64-3.69-.39-5-2.29a10.31,10.31,0,0,1,2.94-1.29c4.91-.36,6.4-3,5.42-7.54-.29-1.37,1-1.3,1.64-1.92,2.64-2.75,6.48-4.91,5.17-9.76-.14-.5-.09-.77.57-.88,5.63-.9,6.5-6,9-9.85,1.41-2.18,4.47-3.31,5.8-5.51,1.73-2.87,8.93-3.86,3.9-9.73-.24-.27,2.1-3.94,1.39-6.23-1.27-4.06-.33-8,0-12,.18-2.49.58-5.38-4.42-2.63,6.59-5,4-11.24,5.37-17.94-2.84,3.11-5.92,4.4-5.34,8.24,0,.29-.55,1-.61.94-2.53-1.14-3,1.33-3.48,2.46-3.35,7.25-10.24,12-13.39,19.38-.29.68-12,4.23-12.72,4-1.48-.62-1.79-1.93-1.71-3.3.18-2.64.94-5.33.67-7.91C46,106.7,51.91,102,54.2,95.82c1-2.75,1.31-4.29-2.39-4.83,8.15-3.55,12.11-9.32,8.64-12,4.81-.8,11.42-6.45,12.15-10.56.1-.52.17-1,.56-.85,4.54,2.18,6.33-3.48,10.15-3.51,1.5,0,2.32-1.31,2.1-2.84-.59-4.11,4.19-8.47-.58-12.37,4-.46,1.51-4.39,3.31-6.53s3.44-6.33,1.3-10c-1-1.77.73-.84,1.15-1.2,3-2.58,2.92-8.33-.23-9.88,0-1.9,1.09-1.35,2.12-1,3.38,0,3-3,3-4.7s-2.3-1-3.59-1.31c-11.16-2.89-22.42-5.58-29-17.81,30.57.49,60.78.77,91.56-6.12C149,1.65,140.07,5,130.39,7.32c-1.22.3-2.81-.05-3.17,1.74-.18.86.57,1.15,3.48,1.42-3.24,3-3,7,.54,9.7,1-.25,1.35.22,1.14,1.18-1.37,1-2.69,2-2,4,1.88,5.23.81,10.92,2.74,16.29.6,1.69.14,4.77.25,7.23.12,2.64,1.84,1,2.82,1.31A3.37,3.37,0,0,1,139.6,50.34Z" style="fill:#fff"/><path d="M179.21,256.31c-1.42-1.16-.78-2.72-.83-4.16,2.2.21,4.72-1.62,6.58.91C184,256,179.24,251.86,179.21,256.31Z" style="fill:#fff"/><path d="M92.48,20.18l-2.12,1-4.66-1C88.07,19.13,90.31,18.92,92.48,20.18Z" style="fill:#fff"/><path d="M132.38,21.36l-1.14-1.18c1.08-1,2.34-.76,3.65-.75A2.11,2.11,0,0,1,132.38,21.36Z" style="fill:#fff"/><path d="M139.6,50.34l-3.4-.16a4.18,4.18,0,0,1,3.67-.83C141.21,49.73,140.75,50.27,139.6,50.34Z" style="fill:#fff"/><path d="M72.41,177.42c.27-.72.53-1.44.8-2.17.33,1,1.5,1.85.78,3.13Z" style="fill:#fff"/><path d="M78.42,210.49l1,.9a3.82,3.82,0,0,1-3.15.83C76.52,211,77.56,210.85,78.42,210.49Z" style="fill:#fff"/></svg>