<svg id="Capa_1" data-name="Capa 1" xmlns="http://www.w3.org/2000/svg" viewBox="0 0 1658.66 993.43"><title>fondoBanner</title><g style="opacity:0.54"><path d="M1648.76,91.7a6,6,0,0,0,2,.53,21.77,21.77,0,0,1,4.24,1.49c.29.14.46.26.72,0s.55-.47.28.14.23.83.56.91c1,.22,1.63,1,2.43,1.55.57.38,1,.76,1.51-.38-.45,1.15.08,1.62.76,2.14s1.52.87,1.88,1.78c.13.32.48.77,1,.38.28.1.35.25.1.46,0,0,0,.13,0,.13,1.19.73.74,2.38,1.81,3.25,1.66-1.48,3.82-2,5.77-2.87.26-.12.58-.22.77.08s0,.7-.18,1q-4,6.8-7.89,13.61l-1.73,3a7.47,7.47,0,0,1-1-4.2c0-1.14-.34-1.69-1.44-1.76-.81,0-1.77-.83-2.44,1,.07-1.36-.49-1.57-1.23-1.79-1-.28-.8.75-1.41,1,.21-1.21-.39-1.82-1.52-2.11-1.28-.33-.36,1.33-1.39,1.28a2.33,2.33,0,0,0-1.85-2.89c-.86-.25-.47.95-1.2.91.58-1.34-.3-2-1.29-2.71-.76-.56-.93.4-1.6.36.45-.79.48-1.48-.44-1.89s-.63.79-1.36.82c.51-1.07.55-2.08-.58-2.79a20.4,20.4,0,0,1-2-2.91,2.68,2.68,0,0,1-.45-1.92c.23-1.21-.35-1.57-1.48-1.27a12.73,12.73,0,0,1-4.44-.06,8.53,8.53,0,0,1-3.13-.32c-.85-.39-.76.59-1.28,1,.21-1.42-.87-1.31-1.65-1.57-.59-.19-1.09-.18-1.28.67-.56-1.56-2.08-2-3.2-1,.06-.68-.06-1.16-.75-1.42a14.18,14.18,0,0,1-3.5-1.86c-.5-.36-.8-.39-1.07.19-1,2.32-3.11,3.75-4.76,5.55a14.23,14.23,0,0,1-2.7,2.08c-.76.53-.63.89.09,1.4-2.12-.77-3.74.48-5.55,1a7.27,7.27,0,0,1-3.57-.22,6.89,6.89,0,0,1-4.21-3.74c-.2-.37-.41-.92-.89-.75-1.07.37-2.07-.28-3-.13-1.35.21-1.81-.81-2.55-1.42a1.53,1.53,0,0,0-1.41-.43,1.65,1.65,0,0,0,.58-1.77c-.32-1.63,1.32-2.46,1.62-3.85,0-.1.81,0,1.27-.09,1-.17,1.92-1,3-.17.66.48,1-.08,1.24-.65a7.55,7.55,0,0,1,2.71-3.54c.61-.38.52-.89.35-1.53.52.48,1.1.74,1.46.15.73-1.21,2-1,3.1-1.42s1.91-1.12,3.19-1.11,2.49-.44,3.75-.33,1.15-.59,1.3-1.36c.17-1-.46-1-1.07-1.07-.9-.1-1.69-.91-2.68-.39a1.84,1.84,0,0,0-1.6-1c-1.82-.28-3-1.82-4.81-2.26-.56-.14-1.14-1.13-1.84-1.58a20.86,20.86,0,0,1-4.37-4.53c-.23-.41-.49-.8-.75-1.2-.75-1.16-.75-1.16-2.15-1.06.56-.54,1.26-.78,1-1.8s-1.19-.64-1.79-.91c0-.1,0-.24,0-.27,1.78-1,1.82-3,0-4A14.5,14.5,0,0,1,1591.1,58c-.46-.46-.82-.89-1.63-.35.52-1-1.22-6.41-2.14-7.15,1-.45,2.94-4.2,2.67-5.48a2.14,2.14,0,0,0,1.94.26,2.57,2.57,0,0,1,2.2.08c.87.45,1.86.28,2.73,1.13a6.82,6.82,0,0,0,3.34,2.25c.25,0,.28,1,.73,1.41s.68,1.51,1.7,1.47c-.43.91.43,1.45.62,2.18.32,1.22,1.16,1.18,2,.83a2.15,2.15,0,0,1,1.45-.11c2.1.42,4.29.47,6.17,1.71.29.19.52.06.72-.19s.4-.16.25.11c-.47.87.32,1.06.73,1.41.9.77,1.57,1.76,2.43,2.54s1.31,2.15,2.25,2.71c1.24.73.7,2.73,2.41,2.91-.33,1.32.87,2.06,1.28,3.09a5.79,5.79,0,0,1,.79,2c0,.77.83,1.24.94,2.09s1.37,1.26,2.36.7c.07,0,.16-.6.33,0,.35,1.15,1.38,1.07,2.22,1,.55-.06.73-.36.56.45,0,.18,1,.8,1.66.87,1.57.18,2.44,1.45,3.64,2.17.81.48,2,.53,2.2,1.89a.76.76,0,0,0,.22-1.07,6.29,6.29,0,0,1-.45-2.63c0-2.47,1.37-3.75,3.58-4.09.23-.05.47-.26.68,0a6.68,6.68,0,0,1,3.76,4.4,7.53,7.53,0,0,1,.35,3.83c-.35,1.22.74,1.56,1.68,2.28-.86.08-1.53-.64-1.85,0-.46.9.83,1,1,1.72-.46.23-1.05-.68-1.37,0s.63.85.73,1.47c-.33.47-.92-.62-1.19.16s-.65,1.88.16,2.47.15,2,1.26,2.46c-.64,1.6.66.76,1.16.9a2.1,2.1,0,0,0,.56,0C1648.27,92,1648.41,91.26,1648.76,91.7Z" style="fill:#0a4fff"/><path d="M1648.76,91.7l-.78.15a4,4,0,0,1,.68-.73C1648.73,91.08,1648.8,91.48,1648.76,91.7Z" style="fill:#0a4fff"/><path d="M1641.73,72.18l-.68,0c.17-.2.26-.57.57-.52S1641.81,72,1641.73,72.18Z" style="fill:#0a4fff"/></g><g style="opacity:0.54"><path d="M1642.19,125.59c.66-.33,1-1,1.48-1.48a22,22,0,0,1,3.4-2.93c.27-.18.45-.27.39-.6s-.14-.72.27-.18.83.22,1.06,0a7.46,7.46,0,0,1,2.56-1.33c.6-.3,1.18-.53.43-1.5.76,1,1.44.74,2.22.41a4.48,4.48,0,0,1,2.48-.73c.35,0,.91,0,.83-.68.23-.19.4-.18.46.15a1.11,1.11,0,0,0,.09.1c1.23-.67,2.42.54,3.71,0-.45-2.17.22-4.29.41-6.43,0-.29.1-.61.45-.63s.61.34.8.67l7.84,13.65,1.73,3a7.42,7.42,0,0,1-4.14-1.21c-1-.59-1.64-.55-2.25.37-.45.67-1.6,1.11-.39,2.6-1.14-.75-1.6-.37-2.16.17-.75.72.25,1.06.14,1.7a1.7,1.7,0,0,0-2.59.26c-.92,1,1,1,.41,1.85a2.33,2.33,0,0,0-3.43.15c-.64.63.6.89.19,1.5-.86-1.17-1.87-.74-3-.24-.86.39-.12,1-.48,1.57-.47-.79-1-1.15-1.86-.56s.37.94,0,1.59c-.67-1-1.53-1.52-2.71-.9a20.36,20.36,0,0,1-3.51.26,2.69,2.69,0,0,1-1.89-.57c-.93-.8-1.53-.48-1.83.65a13,13,0,0,1-2.28,3.81,8.53,8.53,0,0,1-1.83,2.55c-.77.54.13,1,.21,1.6-1.13-.89-1.57.1-2.19.65-.46.41-.7.86,0,1.44-1.64-.3-2.82.78-2.51,2.25-.57-.4-1-.53-1.61-.06a14.26,14.26,0,0,1-3.36,2.1c-.56.25-.74.49-.37,1,1.48,2.07,1.69,4.57,2.43,6.9a14.73,14.73,0,0,1,.45,3.37c.08.93.46,1,1.26.63-1.74,1.45-1.46,3.48-1.92,5.31a7.11,7.11,0,0,1-2,3,6.84,6.84,0,0,1-5.34,1.78c-.42,0-1-.1-1.1.4-.22,1.11-1.28,1.65-1.63,2.55-.49,1.28-1.61,1.17-2.5,1.51a1.5,1.5,0,0,0-1.08,1,1.63,1.63,0,0,0-1.24-1.39c-1.58-.54-1.47-2.38-2.53-3.33-.07-.07.4-.71.56-1.15.34-.93.13-2.14,1.35-2.68.75-.34.43-.9.06-1.4a7.49,7.49,0,0,1-1.71-4.12c0-.71-.51-.9-1.15-1.07.68-.2,1.19-.58.86-1.18-.69-1.25.13-2.3.32-3.4s0-2.21.63-3.32.87-2.38,1.6-3.41.06-1.29-.54-1.8-1.09-.11-1.45.39c-.54.72-1.64,1-1.68,2.12a1.85,1.85,0,0,0-1.67.88c-1.15,1.45-3.09,1.71-4.36,3-.4.42-1.55.42-2.29.81a20.59,20.59,0,0,1-6.11,1.51c-.47,0-.94,0-1.41.05-1.39.07-1.39.08-2,1.34-.18-.76,0-1.49-1.08-1.73s-1.15.71-1.69,1.1c-.08-.06-.21-.11-.21-.16,0-2.06-1.68-3.07-3.46-1.94a14.69,14.69,0,0,1-4.55,1.47c-.62.16-1.18.26-1.11,1.22-.65-1-6.16-2.14-7.27-1.71.14-1.13-2.17-4.65-3.41-5.05a2.17,2.17,0,0,0,1.2-1.55,2.59,2.59,0,0,1,1.17-1.87c.82-.53,1.17-1.47,2.34-1.8a6.84,6.84,0,0,0,3.62-1.76c.17-.2,1,.26,1.59.07.71-.25,1.64.16,2.12-.74.57.83,1.47.35,2.2.55,1.21.33,1.6-.42,1.74-1.36a2.15,2.15,0,0,1,.63-1.31c1.42-1.61,2.55-3.48,4.57-4.49.31-.16.31-.41.2-.72s0-.42.21-.16c.52.84,1.08.25,1.59.07,1.12-.39,2.31-.47,3.42-.83s2.51-.06,3.47-.6c1.25-.7,2.71.77,3.72-.62,1,.94,2.21.27,3.32.43a5.73,5.73,0,0,1,2.1.31c.68.35,1.49-.1,2.29.23s1.77-.55,1.78-1.69c0-.08-.44-.44.14-.31,1.17.27,1.61-.66,2-1.43.23-.5.06-.81.68-.25.13.12,1.22-.52,1.59-1,.93-1.27,2.47-1.39,3.69-2.07.82-.46,1.49-1.51,2.74-1a.77.77,0,0,0-.82-.73,6.27,6.27,0,0,1-2.5-.92c-2.16-1.19-2.57-3.06-1.76-5.14.08-.23,0-.54.38-.58a6.67,6.67,0,0,1,5.68-1,7.54,7.54,0,0,1,3.49,1.6c.89.92,1.73.15,2.82-.31-.36.79-1.31,1-.93,1.6.54.85,1.26-.23,2,0,0,.52-1.11.57-.69,1.19s1-.12,1.64.09c.24.52-1,.49-.46,1.12s1.3,1.5,2.22,1.1,1.82.88,2.76.14c1.07,1.35,1-.2,1.36-.56a1.89,1.89,0,0,0,.28-.48C1642.17,126.15,1641.63,125.68,1642.19,125.59Z" style="fill:#ff0032"/><path d="M1657.77,116.69l-.46-.15a1.82,1.82,0,0,1,0-1.71Z" style="fill:#ff0032"/><path d="M1642.19,125.59l-.26.76a3.49,3.49,0,0,1-.28-1C1641.64,125.31,1642,125.45,1642.19,125.59Z" style="fill:#ff0032"/><path d="M1621.78,121.92l-.38.58c-.09-.25-.36-.51-.16-.76S1621.63,121.75,1621.78,121.92Z" style="fill:#ff0032"/></g><path d="M762.87,786.62c26.14-21.24,34.21-21.08,60.62,7.92,8.92,9.79,16.4,7.93,25.89,5.44,12-3.15,8.23-13.74,8.29-20.88.16-17.42-17.06-6.7-24.85-14.41,2.44-1.57,5-4.62,7.16-4.37,16.18,1.93,22.89-5.54,22.29-21.06-.64-16.15-17.25-22-25-21-12.75,1.62-13.34-5.33-19.19-11.42-12-12.54-26.52-22.11-41.13,0-6.34-12.78,15.73-20,0-29.58-8.12-4.94-13.86-14.79-25.86-10.73-2.8.94-3.74-.63-4.79-4.43-5.61-20.41-10-22.35-32.68-16.17,16.27-21.41-5-29.34-14.8-39.71-4.91-5.19-11.57-4.4-11.77-16.18-.13-8.24-5.15-25.71-22.31-25.62-2.15,0-5.8.29-4.51-2.49,11.84-25.37-3.6-44.88-12.44-66.11-.22-.53,12.51-9.4,16.84-17.21a19.7,19.7,0,0,1,14.69-9.87c3.17-1.48,4.81-6.8,9.74-3.89,29.25,2.22,45.74,25.94,68.4,42.17,1.16-8.35,2.08-14.93,3-21.51,0,28.93,19.92,44.79,38.7,61.74,7.62,6.88,8.38,1.45,10.24-3.87,13.43,3.94,1.66,16.21,7.5,22.66,6.63,8.22,14.1,15.92,19.66,24.81,6.48,10.35,13.3,8.22,22.66,0-10,31.13,17.14,39,27.21,56.51,6.16-2,6-6.39,5-9.34-1.07-3.37-4.22-6.08-7.66-10.67,16.63,2.21,26-6.39,27.57-20.43,1.39-12.27-20.74-28.31-37.53-28.32,5.46-7,17.24-8.59,11.54-22.26-5.93-14.24-15.58-14.13-28.89-13.89,29.88-12.46,9.35-30.35,7.32-46.05-2.9-5.4-14.15,3.34-13.55-8,4.34-1.68,10.83,1.27,11.68-7.34,2.58-26.43-6.16-39.67-31.7-46.27,6.09-8.71,22.73,6.37,24.28-9.85,1.35-14.15,1.75-29-14.94-37-12.84-6.16-21.38-19.07-35.35-23.81-5.55,2.37-6.9-1.83-8.6-5.48-16.32-21.35-40.88-33.71-58.4-53.87-12.48-14.36-8.84,9.17-18.23,7.14,7.08-33.3-22.6-50.89-34-77-2.74-2.91-3-5.93-.43-9.09,0-7.59-.62-15.24.12-22.76,2.89-29.36,23.21-41.85,50.69-31.68,2.9,1.07,6.19,5.55,9.37.17,9.12-2.72,4.8,6.86,8.41,9.19,24.87,10.84,34.25,43.92,65.49,45.62,5,28.39,29.46,41.24,46.36,60.46,14.53-16.66,16.23-30.27-6.1-39.27,4.84-8.74,11.09-8.7,17.47-3.92s11.38,6.51,16.85-1.21c4.09-5.78,8.3-10.73,3.38-18.23-3.64-5.56-3.83-16.58-14.76-7.55-4.62,3.82-5.31-1.27-4.59-3,11.27-27.06-6.68-31.46-28.51-33.14,5.83-11.76,22.23-18.94,9.65-33.39-4.14-4.74-5-13.61-15-8.76-3.94,1.92-8-.95-9.54-4.26-2.69-5.89,4.48-3.77,6.34-6.41,9.84-14-1.76-24.82-7.35-34.28-6-10.17-11.77,2.83-17.62,5.58-3.23,1.51-6.07,3.84-10.13,6.49-6.77-20.44,35-21,16-47.23-10.72-14.73-12.37-35.83-41.4-23.66,20.66-10.35,27.4-21.2,20.65-42.82C794.77-26,791.36-39.68,766.48-36,792-40.11,792.4-55,789.2-72.06c-1.41-7.48-2.52-15-3.77-22.54-1.93-2.66-7.09-3.92-3.85-8.84,13-29.39,12.28-49.89-3.4-62.68,11.65.63,17.94-3,23.24-13.93,16.16-33.4,47.19-46.32,84.11-36.57,8.44,2.23,14.67,5.33,16.57-13.93,2.18,19.94,10.35,27.42,20.61,35.23,14.32,10.9,25.9,25.41,38.71,38.32a2.07,2.07,0,0,0,2,0c.55-.41.76-1.29,1.12-2q2.49-2.37,5,0c-4,23.49,14.79,38.54,22.6,58.29,5.63-14.7,17.75-29.09-.57-43.8-1-4.94.88-6.88,5.82-5.76,3.84,1.21,9.87,8,11.12,2.7,5-21.33,29.83-39.54,9.85-64.82,20.45-.52,42.25-17.52,43.58-34.82,34.44,24.21,44,58.21,42.25,96.17-.84,18.61,1.52,30.12,27.95,22.95-13.75,12.16-35.1,9.36-33.9,29.84.72,12.32,14.92,4,20.79,13-22.92-5.65-28.94,9-34.48,25.33-4.12,12.17-8.71,24.52-15.33,35.42C1059.6-8.73,1056.06,6,1069.88,23c-15.15-8.51-25.54-6.28-32.11,9.31-5.52,13.09-18.9,22.11-19.47,38-.46,13.16,1.83,26.37-2.46,39.5-2.46,7.53-.12,13.06,10.3,12,9.65-1,19.3.8,30.59,7-6.66.69-10.36,1.22-14.08,1.44-25.15,1.46-25,1.42-20.27,28.58.34,1.88-3.15,4.25-4.44,6.62-6,11.08-7.37,23,4.86,29.39,11.52,6.06,12.66,32.34,32.21,19.86-2.6,40.23,20.64,79.74,11,122.39,7.35-13.66,34-17,18-42.18,13.1,7.73,21.22,4.09,30-4.71,15.53-15.49,31.66-30.93,49.84-42.9,6.21-4.1,20.32.19,29.06,4.34,14.09,6.7,32.71,11.83,22.18,35.9-8.39,19.18-8.67,41.39-28.09,56.07-13.86,10.48-20.55,28.25-36.48,38.46s-29,24.65-42.88,37.75c-6.37,6-20,7.45-14.57,22,1.31,3.5-1.44,3.79-5.23,2.37-21.47-8.07-34.15,7.69-33.27,22.55,1.3,22-8.9,39.34-12.63,59-1.31,6.9-10.15,17.87,3.55,20.77,16.67,3.53,5.1-13.85,11.88-18.14,8.94,13.89,9,13.92,18.7.89,17.27-23.13,38.76-44.58,33.31-78.59,2.64,7,5.27,14,8.93,23.72,16.79-23.28,47.61-30.91,57.63-59.93,8.24-2.77,4.5,7.56,9.32,8.53,7.3-2,14.49-5,21.92-5.8,20.91-2.15,31.83,7.8,31,28.81-.33,8.73-3.4,17.25,17.78,14.88-30.93,15.84-32.2,41.12-39.36,63.36,2.93,5.26-2.12,6.62-4.52,9.27-5.24,10.07-9.23,21.08-16,30-8.5,11.11-3.19,16.44,8.9,21.64-29.66,2.4-61.08,43.75-50.51,62.52-21.82-4.15-60.27,26.74-56.4,45.31,1.19,4.52-.23,6.6-5.1,5.46-15.76-7-44.52,10-46,27.58-.65,7.55,0,15.22.08,22.84,2.31,6.13,14.24-2.7,13.26,8.53-21.37,2.58-14.75,20.12-17.47,32.67,1.09,4,2.28,7.9,1.64,12.09-1.25,9.68-2.54,19.35-7,32.42,7.24-8.74,10.59-15.74,15.76-21.26,3.25-3.75,7.83-2.78,12-3.39,12.3-19.11,35.6-25.63,49.4-43.44,5.55-7.16,5.65,7.38,14,6.33,19.07-2.38,38.36,9,59,0-22.28,6.41-23,24.09-26.14,41.3-2.94,15.95-5.43,32.79-17.82,45.11-13,12.87-12.15,33.76-31.21,44.52-17.29,9.77-28.16,29.1-44.32,42.41-27.4,22.56-56.56,42.76-83.82,65.41-23.51,19.53-51.51,19.43-79.92,20.11-33.88.82-53.91-19.81-73.37-42.8-5.63-6.65-10.14-16-21.55-14.34-4.65.83-10.39,3.73-9.92-5.21,7.88-1.87,13-4.51,6.7-13.84-6-8.76-10.84-18.27-16.19-27.45-1.89-4.4-12.28-.76-9.28-9.8-2.17-16.83-13.16-30.2-18-46.05-4.56-15-19.69-2-28.29-10.82,13.89-3.48,29.41-6.11,20.68-26.67-5.43-12.77,6.12-28.38-6.06-40.35C748.54,782.49,759.41,791.16,762.87,786.62Z" style="fill:#f2f2f2"/><path d="M1042.34,798.56c-.85-2.92-5-6,.53-8.57,7.71-2.28,20-13.18,14.54,8.43a9.44,9.44,0,0,0,7.86,11.43c-2.32,3.87-6.18,3.28-9.79,3.4C1046,812.94,1048.8,801.59,1042.34,798.56Z" style="fill:#f2f2f2"/><path d="M780.82,918.2l9.28,9.8-29.46,3.9C764.62,922,773.72,921.58,780.82,918.2Z" style="fill:#f2f2f2"/><path d="M1060.34,757.32c-2.5-5.83-12.91.65-13.26-8.53h31C1073.08,756.25,1067.25,757.88,1060.34,757.32Z" style="fill:#f2f2f2"/><path d="M762.87,786.62c-2.24,6.7-11.26,1.33-13.7,7.69-6.11.7-11.07-1.48-17.06-7.69Z" style="fill:#f2f2f2"/><path d="M753.11,180.67c-6.13,0-3.29-8.25-8.41-9.19q2.73-7.81,5.45-15.64l3,.94Z" style="fill:#f2f2f2"/><path d="M850.23,488.3c2.77,5.62,11.58,1,13.55,8h-26.3C839.33,488.64,843.75,487,850.23,488.3Z" style="fill:#f2f2f2"/><path d="M816.9,566c-8.85-5.45.49-16.92-7.5-22.66,1.26-2.5,1.92-6.37,3.89-7.22,4.1-1.78,4.57,2,4.49,5C817.59,549.38,817.21,557.67,816.9,566Z" style="fill:#f2f2f2"/><path d="M1185.31,423c-7.27,1.7-5.2-6.8-9.32-8.53q2.37-7.79,4.76-15.56l2.75.28Q1184.4,411.06,1185.31,423Z" style="fill:#f2f2f2"/><path d="M684.52,225.75l.43,9.09c-8-2.33-16.78-3.21-22.75-13Z" style="fill:#f2f2f2"/><path d="M795.6,358.54l8.6,5.48-1,8.94c-3.15,2.41,1,11.16-7.64,8.8Z" style="fill:#f2f2f2"/><path d="M799.59,969.29c1.48,5.23,6.75,3.22,9.92,5.21-6.3,6.32-13.75,3.25-21.24,3.61C789.61,970.67,793.68,968.67,799.59,969.29Z" style="fill:#f2f2f2"/><path d="M1212.16,533.48l4.52-9.27c3.76,1.58,11.41,1,10.26,5.45C1225.2,536.43,1217.27,532.22,1212.16,533.48Z" style="fill:#f2f2f2"/><path d="M795.54,381.76l7.65-8.8c1.4,7.64-1.46,14.09-5.05,20.74C793.26,390,795.24,385.73,795.54,381.76Z" style="fill:#f2f2f2"/><path d="M689.07,464.77l-9.74,3.89c.5-5.23,1-10.47,1.52-16C687.26,454.56,688.07,459.73,689.07,464.77Z" style="fill:#f2f2f2"/><path d="M1093,698.37l5.1-5.46c4.56,2.59,11,7.54,7.73,11.11C1101,709.28,1096.77,702,1093,698.37Z" style="fill:#f2f2f2"/><path d="M1019.51,605.31c5.3-17,10.38-29.48,13-42.5,2.41-12.18,11.71-13.42,18.62-10.48,9.89,4.19,1.53,12.07-1.61,16.43C1041.09,580.44,1038.61,597,1019.51,605.31Z" style="fill:#f2f2f2"/><path d="M1042.34,798.56c14.87-4.49,6.07,12.2,13.14,14.69-2.83,14.56-10.86,25.14-26.67,34.74C1035.13,829.49,1034.28,813,1042.34,798.56Z" style="fill:#f2f2f2"/><path d="M853,853c-4.6-11-9.23-21.89-13.79-32.86-1.82-4.38-7.27-10.22,2.67-11.15,5.21-.5,13-3.65,14.23,6C857.69,827.32,860.46,839.73,853,853Z" style="fill:#f2f2f2"/><path d="M1482.71,833.31c-2.64,1.91-5.1,4.16-8,5.67-7.15,3.81-17.61,3.59-16,16.66,1.06,8.4-2.41,17.61,6.7,25.26-4.7-3.37-8-5-8.81,1.76a108.85,108.85,0,0,1-8.44,30.61c-2.16,5,.69,7.49,2.89,10.72,2.46,3.61,4.89,7.25,7.33,10.88.57,2.28-.31,3.12-2.57,2.57-3.47-4.17-6.94-8.34-11.07-13.32-7.11,12.73-13,25.66-22,36.7-3.46,4.29,2.6,7,1.33,12.06-4.74-5.79-8.51-4.36-12.85.38a94.55,94.55,0,0,1-22.62,18c10.77,5.28,14,14.56,15.43,25.68-10.89-19.72-25.39-21.76-45.82-15.3-22.44,7.1-44-1.66-63.9-13.42-3.34-2-5.87-5.54-10.25-5.67l-1.07,0,1,.22c-7.14-8.42-16.36-15-22.34-24.43-2.3-3.63-4.28-3.2-6.81-.54-4.14,4.33-9.44,4.76-15.07,5.09a6.92,6.92,0,0,1,4.47-6.47c11.62-3.34,11.63-9.35,5.91-18.5a51.49,51.49,0,0,1-6.46-17.5c-1.44-7.55-3.38-13.37-13.68-12.09,9.48-2.69,9.77-8.67,8.91-16.13-.92-8-.52-16.21-.49-24.33.08-16.89.14-16.89-13.6-26.32,17.28,6.91,17.64-5,20.2-15.17a175.29,175.29,0,0,1,8.25-25.12c2.19-5.2,1.65-8.57-3.39-10.59-13.38-5.36-22.65-16.88-35.94-23.18-6.42-3-14.32-12.31-19.32-20.69-3.2-1.09-6.27-2.31-5.9-6.6-5.48-7.91-10.74-16-12-25.8-.79-6.43-6.06-6.72-10.27-8.42s-8.73-3-13.31-4.51c7-6,18.4,6,21-3.38,2-7.52,12.61-18.82-2.12-25.77,3.24-6.29,11.16,3.44,12.91-4.31,1.54-6.84,18.47-10.44,4.75-20.33-6.46-4.66-8.82-14.84-19.12-14.28-1.44.08-3.08.45-2.47-2,3.34-13.36-9.68-19.9-13-30.61-1.18-3.9-6.87-1-10.84-3.42,7.14-2.08,9.14-5.55,7.08-13.06-2.4-8.75-2.63-18.26-2.65-27.44,0-7.09,1.29-14-9.09-16.63,11.08.43,13.78-7,16.92-14.12,2.4-5.48,5.84-10.75,11-13.59,9.83-5.41,11.8-11.4,2.74-20.22,19.34,12.58,37.42,14.72,57.46-3.88-11.27,16.94,2.35,17.43,10,22.06,4.07,2.46,8.3,5.19,11.28,8.78,5.18,6.24,10,11.73,19.81,6.08-9.3,5.29-8.09,11.69-4.91,19.24,5.16,12.25,2.88,25.47,3.86,38.26,1.47,2.48-1.39,3.35-1.9,5.09-2.21,17-10.7,31.69-17.5,47.58,10.6,1.4,20.72,2.42,30,6.9,6.44,3.09,7.38-4.48,11.41-6.11,1.88.79,3.47,1.71,2.1,4.14-2.65,5.6-1.15,9.48,3.65,13.64,13.28,11.52,14.69,17.36,19.78,30.45,1,2.64-.06,7.24,5.23,7,2-.08,2.46,1.14.92,2.54-6.33,5.78-.42,11.48-.64,17.87l21.74-9.73c1.64-.78,2.47-3.48,5-2.11l8.65,2.81c5.08-.47,10.62,3.44,15.23-1.59-3-10.88-1.63-20.8,3.77-31.07,3.23-6.15,12.49-12.91,1.38-21.84,12.17,2.25,18.27-1.49,21.11-12.09.41-1.56.17-2.56,2-2.51,1.1,0,2.2.34,3.29.3,12.93-.52,16.45-4.42,15.35-17.14-.41-4.74,0-9.63-2.35-14.05-1.26-.78-1.31-1.63-.17-2.56.31-1.86.23-3.54-2-4.24-1.48-2.42,1.11-3.11,1.93-4.56-.52-5.45-1.34-10.88-1.46-16.33-.13-5.93-1.24-10.2-9.32-6.87,2-5.65,9.67-3.42,9.07-9.62,2.33-5.84-.77-12.2,1.76-18,3.41-6.7,3.4-11.39-6.06-8.61-7.5,2.2-16.56-4.18-22.82,4.27-1,1.28-1.43,3.42-3.82,2.1.94-6-2.93-7.61-7.65-8.27-11.15-1.56-20-7.31-27.19-15.53-5.33-6-9.55-14.31-21.32-5.76,12.89-6.62,8.42-14.51,5.87-22.86a68.38,68.38,0,0,1-3-27.31c.92-8.33-.88-13.44-10.43-13.5-2.32,0-5-1.08-7.93-6,16.3,8,22.46-.84,28.85-12.27,6-10.75,17.27-13.56,29-10.77,6.54,1.56,12,3.41,14.89-6.16-2.17,11.26,4.31,16.47,11.95,19.91,12.37,5.57,19.56,17.27,29.32,25.63,4.29,3.68,7.23,14.37,12.06,21.19,2.31,3.25,5.25,6.05,8.84,10.11,1.8-8.53,22-9,7.12-22.44.8-.35,1.43-.9,2-.86,4.69.29,8.07,9.46,13,3.48,4.53-5.45-4.61-6.78-5.9-11.22-1.93-6.64-6.06-12.71-7.6-19.4-1.33-5.75-4.58-6.56-11.56-6.43,7.23-3.52,8.62-7.4,7.24-13.37a91.36,91.36,0,0,1,.16-43.76c1.19-4.64.68-7.58-4.32-9.28-3-1-5.54-3-9.2-5.14,2-.87,3.2-1.79,3.57-1.53,11.3,8.29,16.67,1.34,21.83-7.89,2.1-3.74,5.62-6.8,8.84-9.79,8.94-8.28,9-8.2,9.17-22.48,3.5,12.66,10,10.55,17,8.31,8-2.57,16.3-1.12,23.93,1.46,6,2.05,9.88,1.7,12.78-5.05-1.74,6.19-.33,9.64,5.24,12.76,11.41,6.39,19.83,16.27,26.86,27.26,2,1,3.59,2.12,2.41,4.7,3,5.56,1.11,13.41,8.18,17,2.25-.89,2.83.14,2.51,2.19-9.21,9.8-7.35,25.46,4.95,34.3-14-6.63-16,3.43-18.69,11.74-3.48,10.76-14.23,17.78-15,30-.15,2.62-2.23-.13-2.83.13-9.51,4.13-11.87,11.78-6.48,20.36,3.24,5.15,4.67,11.76,11.35,14.14-5.29,6.45.9,12.59.55,18.93-.21,3.75,1.17,6.57,5.82,5.65,2.4-1,2.92.18,2.7,2.26-5,1.45-7.68,3.92-7.79,10-.18,9.11-2.14,18.17-2.86,27.29-.26,3.19-3.17,7.27,1.74,9.67.57,2.08,0,3.07-2.3,2.37-6.26,12.31-13.36,24.33-13.33,38.81,0,6.62-4.32,0-5.68,1.81-4.18,5.54-7.54,11.92-12.47,16.66-6.84,6.57-2.4,11.77.3,17.6.56,1.21.34,2.78.53,4.63-5.52-1.9-5.73-7.77-9.92-10.53a11.93,11.93,0,0,0-2.21,1.37c-12.27,11.44-12.22,11.43-3.81,26.6,2.13,3.83,4.41,7.7,5.71,11.84,2.34,7.41,6.23,7.6,11.69,3.45,2.36-.71,3,.42,2.79,2.57-7.38,5-10,10.93-7.47,20.26,2.6,9.61.12,19.69-2.33,29.25-1,4.07-.43,7,1.82,10.08a2.42,2.42,0,0,1-3.53.47c-8.19,11.61-12.58,25.53-22.48,36.16-6.78,7.27-13.45,14.52-21.7,20.23-3.75,2.6-10.43,2.73-10.84,8.08-.64,8.37.23,16.88.92,25.3.28,3.42,2.94,2.3,5,1.35q7.93-3.73,15.84-7.5C1482.3,830,1483.05,831.09,1482.71,833.31Z" style="fill:#b3b3b3"/><path d="M1188.89,740.14l5.9,6.6c-5.86.43-6.68,8.58-13.22,8.62C1181.14,748.73,1189.1,746.34,1188.89,740.14Z" style="fill:#b3b3b3"/><path d="M1371.69,701.31c-4.45,6.58-9.88,3.73-15.23,1.59,9.91-1.46.71-9.31,5-13.17,3.16,1.45,3.06,4.54,2.64,7.59C1363,705.77,1367.28,703.56,1371.69,701.31Z" style="fill:#b3b3b3"/><path d="M1266.07,587.9c.63-1.7,1.27-3.39,1.9-5.09l14,2,.24,1.72Z" style="fill:#b3b3b3"/><path d="M1513.2,747.06l3.53-.47c3.89,3.91,9.29,6.76,10.09,14.28C1520.68,756.73,1516.82,752,1513.2,747.06Z" style="fill:#b3b3b3"/><path d="M1416.08,540.71c.44,6.11,1.44,12.27-1.76,18-2.2-5.3,3.34-11.79-2.6-16.79C1411.16,541.47,1414.54,541.16,1416.08,540.71Z" style="fill:#b3b3b3"/><path d="M1455.9,937.44c.85-.86,1.71-1.71,2.57-2.57,3.21,2.39,5.08,5.61,6.3,10.39C1459.12,945,1458,940.63,1455.9,937.44Z" style="fill:#b3b3b3"/><path d="M1383.38,538.47l3.82-2.1c.51,4.28.75,8.48-3.23,11.87A16,16,0,0,1,1383.38,538.47Z" style="fill:#b3b3b3"/><path d="M1524.71,687l-2.79-2.57c2.35-2.9,5.64-4.29,9.76-6C1531.81,683.85,1527.76,685,1524.71,687Z" style="fill:#b3b3b3"/><path d="M1482.71,833.31l-2.79-2.63c2.23-3,5.47-4.34,9.52-5.86C1489.68,830.1,1485.78,831.4,1482.71,833.31Z" style="fill:#b3b3b3"/><path d="M1551.11,572.19l2.3-2.37c3.16-.39,5.4,1,7.18,3.66A9.18,9.18,0,0,1,1551.11,572.19Z" style="fill:#b3b3b3"/><path d="M1347.81,700.09l-5,2.11c.25-3.1.51-6.19.8-9.72C1346.61,694.59,1347.4,697.24,1347.81,700.09Z" style="fill:#b3b3b3"/><path d="M1284.18,982.53c-3.33,2.07-4.62,8-11.85,4.84,4.17-2.59,6.65-6.23,11.82-4.66Z" style="fill:#b3b3b3"/><path d="M1569.22,366.24q-1.2-2.36-2.41-4.7l6.31-2.48c2.43-1,2.81.21,2.51,2.24Z" style="fill:#b3b3b3"/><path d="M1416,591.55q-1,2.28-1.93,4.56c-2.53.09-6.32,0-5.63-2.91S1413.47,592.45,1416,591.55Z" style="fill:#b3b3b3"/><path d="M1292.11,640.41l-2.1-4.14c.33-2.26,3-4.76,3.57-4C1295.66,635,1294.91,638.1,1292.11,640.41Z" style="fill:#b3b3b3"/><path d="M1562.32,522.88l-2.7-2.26,9.33-4.11C1568.57,521.89,1565.26,522.17,1562.32,522.88Z" style="fill:#b3b3b3"/><path d="M1579.91,385.41l-2.51-2.19c2-2,5.39-4.23,6.82-2C1586.1,384.13,1582,384.47,1579.91,385.41Z" style="fill:#b3b3b3"/><path d="M1575.63,361.3l-2.51-2.24c2.12-1.59,5-5,6.85-2.48S1577.71,360.15,1575.63,361.3Z" style="fill:#b3b3b3"/><path d="M1416.05,600.35c.06.85.11,1.71.17,2.56-3.51-.64-7.29,1.18-10.69-1.15C1408.75,598.56,1412.5,600.2,1416.05,600.35Z" style="fill:#b3b3b3"/><g style="opacity:0.47"><path d="M298.21,764.06c-.16,5.9-.41,11.8-.45,17.7,0,2-1.11,4.7,2.26,5.45,1,.21,2.74.57,1.56,1.89-7.49,8.35-2.56,18-2.3,26.88.14,4.62,2.23,8.58.25,13.95-1.91,5.18.12,11.69-.42,17.54-.5,5.48,1,8.32,7.67,8.12-7.48,2.17-8.08,7.13-7.3,13,.44,3.33.07,6.75.31,10.11.42,6-3.34,14.62,10.76,12.61-4.94,3.43-10.95,1.2-10.24,6.57,1,7.45-3.79,16.46,6.13,22.56-3.79.11-6.05.85-6,4.86.19,8.7-.1,17.43-.43,26.13-.31,8.45,8.44,3.17,10.93,7.87-5.72,1-12.69.17-11.45,10.13.69,5.55,1.3,8.57,7.49,9.44,9.55,1.33,16.69,7.6,23.8,13.57,1.18,1,2.91,2.11,1.79,4.11-.76,1.37-2.23,1.35-3.7,1.4-36.66,1.25-73.4,1.45-110.67,6.44,3.38-9.67,11.95-13.09,19.13-17.88a32.34,32.34,0,0,1,6.89-3.06c11.88-4.37,12.9-7,6.58-18.34-.86-1.53.09-1.22.71-2,4.31-5.44,4.21-11.18.35-16.89-.32-.47-2,.15-1-1.37,7-10.5,4.15-21.59,2.94-33-.39-3.59,2.64-8.91,1-12.5-3.39-7.31.42-14.17-.32-21.24-.85-8.17-1.24-16.55.32-24.72,1.29-6.78-2.31-13.48.76-20.42,2.28-5.15-.86-7.7-6.31-6.64-11.1,2.17-20-2.51-26.92-10.15-4-4.33-6.43.58-10.56-.38,5-4.7,3.69-8.83,0-13.15-3-3.57-2.29-11.39-11.38-7.92,9.59-11.66,2.63-23.21,2.29-34.4-.37-11.85,5.66-24.76-6-34.59,2.92-1.94,4,1.3,6.9.55-1.63-18.42,1.2-37,1.2-55.65,0-9.38,3-19.05,4-28.69.3-2.86,2.26-6.1-1.26-8.48-.37-.25-.46-.94-.67-1.43,8.48-3.41,4.67-16.6,14.83-18.67a19.31,19.31,0,0,1,10.84,0c7.29,5.63,6.9,14.17,8.35,22,.08,1.77,4.29.07,2.71,3.23-2.42.46-2.83,2.17-2.94,4.31-.54,10.43-1.69,20.85-1.61,31.27.07,9.86-3.15,19.15-3.8,28.83-1.91,2.34,1.61,4.45.3,6.77-2.05,4.21-1.38,8.73-1.5,13.16a3.24,3.24,0,0,1-.05,4,59.87,59.87,0,0,0,2.26,20.53c7.08.29,10.27-11.17,20.38-4.1-3.28-10.77,7.54-22.6-8.7-29.26,14.07-.27,8.75-10.66,10.72-17.07,1.43-4.65-1.59-7.2-4.41-10s-2.53-5.49,1.79-5.16c3.33.26,4-.78,3.86-3.41-.38-10,3.33-20.16-1.82-29.8-.76-1.41-.08-2.15.43-3.48,3.6-9.38,3.89-18.92-.48-28.18-.46-1-1.68-1.09.06-1.76.75-.29,2.13-.75,2.1-1-.79-7.56,3.37-15.54-2-22.72-1.22-1.63-4.67-4,.94-4.78,2.66-.38,1.66-3.21,1.69-5,.16-9.94,2.38-20.49-8.46-27.16,5.32-4.11,5.89,1.78,9.93,3-.84-9.1,4.09-17.33.89-26.3-.52-1.46-1.31-2.78,1.39-3.69,6.49-2.18,10.24-7.63,13.47-13.25.91-1.57,2.58-3.68,3.14-2.5,3.22,6.76,11.68,4.61,15.7,9.94,2.89,3.84,4.72,8,6.8,12.27,4.81,9.83-1.12,19.56,1.29,29.06.88,3.5-3,8.79,3.6,10.35,1.44.33.5,1.37,0,1.66-4.77,3.06-2.24,7.7-2.3,11.56-.17,10.82.33,21.64.3,32.46,0,4.78-.81,9.66,8.14,8.45-9.2,5.29-11.1,15.09-5.62,22.53,1.24,1.69.8,1.31-.41,2.47-4.68,4.46-2.21,10.45-1.91,15.56.21,3.55,5,1.61,5.59.11,4.19-10.81,10.94-21.22,7.09-33.7-.38-1.23-.26-1.43.56-2.45,6.66-8.24,6-11.78-3.69-16.23,4.62-1.11,10.75.2,9.66-6.34-1.83-11,9.4-25.49-8.88-32,.83-.71,1.27-1.33,1.53-1.27,8.15,2,10.44-1.7,10.39-9.37a65.42,65.42,0,0,1,2.51-17.45c1.5-5.45-3.18-7.17-5.35-10.69,2.07-2.44,7.24,1.8,7.5-4,.3-6.68,7.4-13.65-1.71-20.14,6.22,1.55,9.34-1.51,13.18-5.57,7.72-8.17,20.51-4.8,25.91,5.13,1.63,3-.64,9.94,6.81,8.74.56-.09.14,1.07-.2,1.79-3.36,7.12-3.76,14.1.61,21.13,1.76,2.83-2.6,4-2.64,7-.12,9-1,17.93-1.63,26.9.74.94,2.46,1.41,1.53,3.16-4.6,9.51-3.25,20.07-5.17,30.06-.77,4,5.08,2.84,6.39,6.62-7.18-2-8.67,2.17-8.05,7.61.65,5.61-5.82,11.66,1.05,16.88.6.45.08,1.08-.49,1.81-6.84,8.76-6.93,14.37.57,26.54-6.8-5.74-9.14-3.59-9.93,2.48-.87,6.65-5.33,12.16-7,18.32-2.21,8.2-9.83,11.86-12.91,18.74-3.2,7.14-9.43,10.5-15.39,14.07-4.27,2.55-6.95,5-4.79,10.84-5.33-7.82-10.83-2-16.07-1.45-1.62,1.41-1.84,4-4,4.92a73.58,73.58,0,0,1-1,9.06c-1.3,5.73-.38,9.86,6.33,10.73C305.15,765.46,299.65,761.17,298.21,764.06Z" style="fill:#0a4fff"/><path d="M232.6,613.41l-10.84,0c1.59-3.4-3.06-4.37-2.84-8.86C224,607.66,226.84,613.28,232.6,613.41Z" style="fill:#0a4fff"/><path d="M375.63,582.88l-1.53-3.16c2.61.34,5.42-.51,8.55,1.38C380.36,583.59,377.81,582.6,375.63,582.88Z" style="fill:#0a4fff"/><path d="M235.61,709.82c-.69-2.23-3.25-4.38-.3-6.77-.77,5.18,4.25,2.17,6.22,4.34Z" style="fill:#0a4fff"/><path d="M299.81,740.32c1.13-1.82,1.05-4.63,4-4.92C308,741.55,302.78,740,299.81,740.32Z" style="fill:#0a4fff"/><path d="M298.21,764.06c.7-4.19,5.86-.5,7-3.95,2,2.37,1.77,3.9-1.62,3.52C301.68,763.42,299.94,763.19,298.21,764.06Z" style="fill:#0a4fff"/><path d="M243.66,638.64c-.28-1.6-3.34-.86-2.71-3.23,1.7.54,4.08-.86,5.07,1C246.68,637.61,245.22,638.66,243.66,638.64Z" style="fill:#0a4fff"/><path d="M234.06,727c0-1.32,0-2.64.05-4,1.52.24,4.18-.42,4.24,1C238.43,725.91,235.8,726.33,234.06,727Z" style="fill:#0a4fff"/></g><path d="M161.3,217.12c2.15-.69,1.2-2.05.68-3.29-2.43-5.77-5-11.5-7.26-17.33-.92-2.34-3.29-2.24-5.45-3.61,4-2.26,3.77-4.43-6-14.16a1.41,1.41,0,0,1-.39-.81c-2.06-15.79-3.18-18.13-7.24-16.1-1,.5-2,1.5-3.32.76,0-.31-.13-.83-.06-.86,5.36-2.13,5.39-5.25,2.45-9.74-2.37-3.61-3.84-7.79-5.72-11.72-.44-1.38-.39-3.39-2.84-2.31-2,1.8-2.59.73-2-1.17,2.29-6.88-2.72-11-5.93-15.67-.92-1.35-3.18-.85-1.84-4.25.9-2.29-2.48-6.58-4.54-9.57a13.87,13.87,0,0,1-2.35-4.8c-.85-3.43-2.31-6.56-6.26-7.74A5,5,0,0,1,99.63,91l3.89.38c1.31-2.55-7.66-13.82-13-15.61,4.34,10.93,8.51,21.38,12.63,31.86,1.23,3.11,2.85,0,4.76.42-3.72,3.13-2.15,6.39-.52,9.48,2.92,5.52,5.33,11.3,8.2,16.83,2.48,4.79,4.38,10.26,6.45,15.46,1.38,3.49,3.12,6.12,9,6-4,2.06-5,3.67-3.21,6.55a36.13,36.13,0,0,1,4.94,10.94c.61,2.84,4.78,2.86,3.84,7.19-1.1,5.09,9.54,12.72,2.16,16.41,8.34.1,5,5.83,9.66,7.33,3.09,1-1.13,1.54-.45,2.79,3.8,7,3.36,16.21,11.06,21.19,1.55,2.56-3.17,2.54-2,4.93,2.06,4-.17,9.06,3.19,12.73-4.53,3-9.46-.83-14.07.87-.45.17-1,.08-.92-.67.4-5-4.73-6.44-6.52-10.07-.65-1.31-1.79-2.66-3.79-2-.36.12-1.45.63-1.07-.66,1.62-5.55-1.85-8.49-5.79-11-2.16-1.38,1.15-2.31-.2-4.29-3.3-4.86-5.43-10.51-8.2-15.74-3.74-7-6-14.75-9.48-21.84-3.8-7.68-6.13-15.88-9.27-23.78-1.27-3.18-3.08-4.24-6.16-4-1.09-1.73.28-1.89,1.41-2.2,2.39-.95,1.07-2.66.59-3.91-2.19-5.69-4.55-11.32-6.87-17-2.19.27-1.78,2.88-3.47,3.5-.18-.25-.52-.54-.46-.65,3.54-7,0-12.93-2.84-19-1.31-2.82-2.29-4.26-4.79-1.14-.51.62-1.46.88-2.87,1.24,5.45-4.51,5-9.65,1.06-14-2.15-2.36-5.1,1.36-7.86,1.55-1.26-1.72.32-2.48,1.26-3.25,1.67-1.38,3.38-2.63,1.83-5.11-1-1.66-2.55-2.56-4.38-1.64-2.65,1.33-1.09,3.61-.86,5.52.18,1.54.67,3.06,0,4.58.44,5.12,5.61,3.05,8,5.25,0,.3,0,.83,0,.85-7.27,1.67-4.34,6.12-2.75,10.15,2.88,7.3,5.55,14.7,8.78,21.84,5,11.08,10.47,22,15.7,33,1.06,2.22,2.16,4.33,4.46,5.62,1,.57,2.69,1.29.75,2.95-1.26,1.08,0,2.26.44,3.28,3.64,8.12,7.52,16.14,10.94,24.36,1.26,3,3.65,1.88,5.93,2.6-5.9,3.91-.73,7.47.07,11.17,1,4.61,3.28,8,9,8.12-5.68,1.58-4.43,4.88-3.16,8.47a48.17,48.17,0,0,1,2.56,22.52c-.73,1.17-1.57.35-2.38.14-2.62,1.48-7.11.55-6.82,6.27-3.4-6.36-9.26-9.58-12.24-15.42-1.7-3.32-4.48,1.2-7.45.21,6.18-2,5.31-5.49,2.69-9.54-.83-1.3-1-3-1.82-4.33-3.14-5-2-13.47-12.72-12.31l1.6-1.7,5.47.06c-2.23-5.05-3.79-9.85-6.37-14s-2-9.14-6-13.17c-2.28-2.31-2.44-8.27-4.28-12.37-.66-1-2.41,1-2.71-1,1.78-4.34.13-7.4-3.65-9.63-.8-.47-2.17-.6-1.11-2,.18-.23,1,0,1.45,0,.39-3-2.57-4.15-3.55-6.4.26-3.58-1.77-6.66-3.69-8.95A12.65,12.65,0,0,1,61,150.47c-.75-4.88-2.22-2.83-3.92-.42.36-10.19-4.37-17.55-10.66-24.57,1.38-.51,1.92-1.83,1.11-4.22a163.36,163.36,0,0,1-5.69-20.41c-2-10.31,1-19.35,4.46-28.53.89-2.4,1.25-4.29-2.5-5.12,5.19-.58,6.85-4.26,7-7.81.18-3.73-5-2.81-6.37-6,1.08-1.51,3-.25,4.24.37,3.88,1.91,4.76,0,5.14-3.33.67-5.79,2.83-12-5.11-14.67,1.6-2.07,4.07,1,4.56-1.2.93-4.19-4-3.52-5.81-6.21,7-.68-.41-5.82-.22-13.51a1.69,1.69,0,0,0-.42-1.15C38,4.27,35.56.54,46.5-3.07c5-3.62,10.12-10,12-3.84.51,1.65,2.3,3.25,2.11,4.69-.47,3.54,5.89,2.91,3.84,7.81-1.31,3.12,2,6.74,3.24,10.13s2.83,4.72,6.63,1.94c-2.17,3.15-3.7,5.77,0,8.11,3,1.86,5.22,6.08,9,4.87,2.41-.77,2.81-5.32,6.2-6.31.16.56.4.93.3,1.14-3.93,7.87-3.94,7.86,4.45,11.19a12.68,12.68,0,0,1,1.94.78c4,2.45,7.46,2.73,10.07-2a3.56,3.56,0,0,1,4-1.85L106,41.1c4.19,1.43,8.12,3.13,12.23,4.11,5.76,1.36,9.92,6,16,7.17,1.57.3,4.19,4.65,6.95,6.44,1.7,1.1,2.93,3.92,5.76,2.09a1.39,1.39,0,0,1,.8-.07c1.51,9.33,10.57,12.88,15.33,19.81,5.54,8.06,11.61,15.76,16.87,24,1.9,3,2.36,7.47,7.29,8.08,1.5.18-.35,1-.43,1.69-.46,3.59,2.79,7.46,6.68,7.18-2,2.62-1.44,4.9.17,7.27s2.21,5.64,5.58,6.53c-2.51,3.48,1.14,5.67,1.78,8.5.85,3.76,2.73,5.77,7.52,3.74-5.43,3.35-2.68,6.86-1.64,10.55s3.77,3.5,7.87,3.61c-4.62,2.1-5.23,4.61-3.79,8.34,1.25,3.24,1.38,6.92,6.3,7-4.4,3.64-4.47,6.73-.58,10.24.29.26,1.36.31.88.65-4,2.84-.53,6.86-1.72,10.12-.76,2.09-1.4,4.3-4.28,3.06-3.85-1.66-6.54-4.88-9.06-8-2.28-2.82-1.59-7.86-6.65-8.83-.3-.05.25-2.73-.28-3.87-1.73-3.66-1.22-8.78-6.85-10.06,1.95-4-2.86-13.11-7.26-15.05-.66-.29-.57-.56-.64-1-1.1-6.85-1.1-6.85-5.32-13-1.74.41-1,2.68-2.47,3.71.34-14-9.14-23-15.44-33.44-.55-.9.21-1.06,0-1.48-1.12-2.85-.64-7-5.42-7-1.06,0-.92-.94-.61-1.45,1.73-2.79-.43-4.69-1.64-6.62-2.44-3.89-5.09-7.68-7.87-11.33-.78-1-1.21-3.38-3.83-1.76-1.58,1-1.67-.81-1.56-2.11.29-3.79-3.21-4.68-5.34-6.41-1.72-1.41-1.52,2.3-3.68,1.87,1.71-5.2-2.59-6.5-5.66-8.77-2.13,1.18-.74,3.83-2.44,5-2.48-1.13-1.86-3.74-2.55-6.12-1.18,2.08.5,3.69-.13,5.31,1.49,3.37,1.73,7.85,8.14,7.48-9,6.66,9.63,11.21-8.52,16.92,16.7-3.28,11.46,6.85,17.57,7.53,2,.22,2.32,1.39.54,2.61-1,.65-.83,1.34-.42,2.19,1.92,3.93,3.78,7.89,5.74,11.8,1,2,3.27,1.73,5.23,2.51-.87,1.8-2.56,3-1.09,5.48,3.48,5.85,6.39,12,9.44,17.93,2.28.55,1.56-2.7,4.11-2.21-3.61,6.79,1.15,11.59,4.34,16.43,3,4.61,3.38,11.78,10.64,13.23-2.84,1.59-1.73,3.94-.35,6.25,4,6.73,7.39,13.76,11.67,20.38,2.26,3.49,3.58,8.06,5.37,12.14,1.87,4.26,3.59,7.84,8.37,2.47.14.74.35,1.23.24,1.32-5,4-3.19,8.05-.46,12.56,2.61,4.33,4.57,9,8.9,12.09,1.25.88,3.48,2.11.16,3.5-1.13.47-.45,1.49-.07,2.19,3.16,6,4.58,12.88,9.89,17.63.47.42,1.11,1.27,1,1.62-2.45,5.74,1.24,10.45,2.66,15.48,1.14,4.05-5,10.9-9.64,10.2-4.92-.75-8.61-3.78-11.93-7.16-2.51-2.55-4.61-6.76-6.46.29-2.33-1.1-1.5-2.53-.89-3.29,2.38-3,1.08-5.26-.95-7.77-3-3.72-2.88-3.82-7.65.12,5.93-8.77-.58-14.42-3.73-20.2-4.48-8.21-6.67-17-11.77-25.11-1.31-7.69-3.15-10.12-7.88-7.79C158.1,217.33,160.24,217.7,161.3,217.12Z" style="fill:#e6e6e6"/><path d="M66.53,101.13c-.6-2.16-1.31-4.31-1.77-6.51-.36-1.75-2.32-3.62,1.07-5.06,4.55-1.93,6,.8,7.94,3.85s-.32,3.45-2,4.67c-1.13.82-3.2.79-3.08,3Z" style="fill:#e6e6e6"/><path d="M116.9,70.86l-3.24-7.62c3.43.51,6.16.38,5.11,4.5a4,4,0,0,0,.81,3.93Z" style="fill:#e6e6e6"/><path d="M67.37,166.07c2.27,1.54,4.39,3.15,3.55,6.4-1-2.9-1.54-7.16-5.51-1.61A4.91,4.91,0,0,1,67.37,166.07Z" style="fill:#e6e6e6"/><path d="M124.84,261.41l2.38-.14c1,1.42,1.95,2.84.74,5.54Z" style="fill:#e6e6e6"/><path d="M74.23,184.09c.72.83,2.3-.68,2.71,1l-3.85,2.22C72.22,185.84,73.31,185,74.23,184.09Z" style="fill:#e6e6e6"/><path d="M161.3,217.12c-.52,1-2.3,1-2.24,2.56a2.49,2.49,0,0,1-3.45-.05C157.39,218.24,159,217,161.3,217.12Z" style="fill:#e6e6e6"/><path d="M157.08,233.15c-2.13-2.79,2.45-2.83,2-4.93,1.68.28,2.31,1,.59,2.09C158.52,231.05,157.26,231.56,157.08,233.15Z" style="fill:#e6e6e6"/><path d="M96.21,150.45l-1.41,2.2-4.5.28C92.71,151,94.3,150.35,96.21,150.45Z" style="fill:#e6e6e6"/><path d="M126.19,138c-.06-.75.34-1.47,1-1.24,1.62.56,1.84,2,1.82,3.55C127.92,139.69,128,137.62,126.19,138Z" style="fill:#e6e6e6"/><path d="M63.84,90.42c-.83-3.74-2.12-6.48,0-8.1,1.25-.93,3.36,1.22,3.86,2.67C68.92,88.52,64.79,87.33,63.84,90.42Z" style="fill:#e6e6e6"/></svg>