<svg id="Capa_1" data-name="Capa 1" xmlns="http://www.w3.org/2000/svg" viewBox="0 0 686 434"><title>torre</title><path d="M470.81,93.91c4.77-2.67,9.45-5.49,14.39-7.84,2.16-1,4.47-1.72,6.5-3,1.85-1.21,3.57-2.7,4-4.84.84-4.52,4.28-6.2,7.82-7.93C508.14,68,513.33,67.15,518,65c3.55-1.66,6.14-.81,8.77,1.51a15.1,15.1,0,0,0,2.46,1.65,5.23,5.23,0,0,0,4.94.42A134,134,0,0,0,551,59.06a52.6,52.6,0,0,1,13.14-6.39c.76-.23,1.43-.36,1.91.45a1.62,1.62,0,0,1-.26,2.14,4.46,4.46,0,0,1-1.21,1c-3.31,1.55-6.27,3.72-9.5,5.37-3.94,2-7.74,4.29-11.57,6.51-2.11,1.22-4.11,2.65-6.19,3.93a5.52,5.52,0,0,0-2.66,5,37.68,37.68,0,0,0,1.09,8.65c.47,2.19.1,2.86-1.94,3.75a5.47,5.47,0,0,1-1.45.55c-3.19.35-5.18,2.38-7.22,4.62a26.18,26.18,0,0,1-10.18,7.3,7.41,7.41,0,0,1-5.77.13,4.79,4.79,0,0,0-4.72.52c-6.85,4.26-13.79,8.37-20.64,12.63-9.59,6-19.19,11.89-28.56,18.19-5,3.34-10,6.51-15,9.85-6.38,4.3-12.7,8.68-19,13-4.59,3.15-9.18,6.29-13.73,9.49-3.92,2.74-7.78,5.57-11.66,8.35s-7.7,5.5-11.53,8.28q-5.25,3.79-10.44,7.64c-5.39,4-10.76,8-16.14,12-3.92,2.91-7.86,5.81-11.76,8.75-5,3.78-10,7.6-15,11.41q-8.44,6.41-16.89,12.82c-3.56,2.71-7.08,5.46-10.68,8.12a2.26,2.26,0,0,0-1,2.81,21.53,21.53,0,0,0,1.93,3.91c1.66,3.07.71,5.15-2.69,5.89a7.35,7.35,0,0,1-2.8.15c-4.64-.8-8.27,1.3-11.69,4-4.29,3.43-7.78,7.66-11.53,11.62-6.16,6.49-12.33,13-18.44,19.52q-11.08,11.86-21.57,24.27c-3.46,4.09-6.81,8.28-10.29,12.35a2.72,2.72,0,0,0-.28,3.54q2.38,4.13,4.76,8.26c2.07,3.64,1.41,4.91-2.77,5.3-1,.1-2.08.07-3.12.14-3,.17-4.4,2.08-3.74,5,.94,4.07-1.08,6-5.15,5l-1.8-.5c-4-1.06-6.26-.11-8.36,3.49a64.59,64.59,0,0,0-3.38,7.2c-2,4.55-4.65,8.73-6.93,13.11-5.53,10.63-10.87,21.34-16.38,32s-11.27,21.48-16.9,32.23c-3.62,6.91-7.18,13.86-10.84,20.76a25.28,25.28,0,0,0-2.42,7.54,3.63,3.63,0,0,1-1.66,2.5c-1.69,1.16-2.5,3-3.27,4.85-1.11,2.64-2.07,5.34-4.21,7.4-1.63,1.58-2.16,1.71-3.38-.11-2.85-4.28-5.82-8.49-8-13.18a78.81,78.81,0,0,0-4.45-7.7c-3.35-5.44-7.45-10.41-10-16.33-1.19-2.72-1.47-5.36.23-7.87,1.89-2.8,1.52-5.2-.24-8-3.65-5.81-6.92-11.88-10.4-17.81-.69-1.18-.77-1.94.52-2.81a93.68,93.68,0,0,0,11-8.43,76.51,76.51,0,0,0,16.79-91.08,74.93,74.93,0,0,0-28.16-30.8,76.76,76.76,0,0,0-69.83-5.64c-2,.81-3.87,1.81-5.76,2.78-1.3.66-2,.43-2.9-.88-4.95-7.58-9.7-15.28-14.06-23.21a3.16,3.16,0,0,0-3.43-1.61c-1.19.11-2.37.32-3.56.46a3.19,3.19,0,0,1-3.28-1.63c-6-9.27-11.71-18.71-17-28.39-2-3.65-3.86-7.38-5.77-11.08-.71-1.38-.48-1.86,1.1-2.34,3.5-1.09,7-.6,10.52-.06,1.85.29,3.71.53,5.56.79a2.76,2.76,0,0,0,2.61-.66,1.12,1.12,0,0,1,1.57-.11,4.87,4.87,0,0,0,3.15.64c16.61.07,33.2.94,49.78,1.82,19.34,1,38.68,2,58.06,2,4.57,0,9.16.5,13.7-.43a13.92,13.92,0,0,0,2.11-.55c3.6-1.3,4.73-3.29,3.75-6.5-.82-2.69.2-4.29,2.71-5a3.36,3.36,0,0,1,3.72,1.29c2.75,3.22,5.73,2.65,7.19-1.35.2-.54.43-1.06.6-1.61a3.4,3.4,0,0,1,2.89-2.71c1.45-.17,2.08,1.11,2.68,2.07,1.84,3,3.58,6,5.29,9a4,4,0,0,0,4.29,2.29,118,118,0,0,0,15.08-2.51c15.73-3.34,31.55-6.24,47.18-10.06,9.61-2.35,19.15-4.91,28.59-7.86a9.33,9.33,0,0,0,6.26-5.45,18.6,18.6,0,0,1,1.85-3.43,5.31,5.31,0,0,1,4.69-2.65c1.88.13,2.65,1.85,3.36,3.36a13.62,13.62,0,0,0,1.72,2.95,1.69,1.69,0,0,0,2.18.55c5.78-2.21,11.6-4.32,17.35-6.61s11.16-4.57,16.71-6.94c5.82-2.5,11.61-5.09,17.42-7.64s11.52-5,17.27-7.59c5-2.22,10-4.47,14.94-6.71s10.06-4.49,15.08-6.75l18.78-8.45c4.31-1.94,8.64-3.84,12.94-5.81,4.68-2.14,9.34-4.33,14-6.51q5.44-2.53,10.87-5.11c4.7-2.24,9.39-4.47,14.06-6.76,7.18-3.54,14.37-7.06,21.49-10.72C463.85,98.12,467.29,95.94,470.81,93.91ZM252.48,234.53a130,130,0,0,0-7.14-11.11,1.65,1.65,0,0,0-2.13-.66q-7,2-13.74,4.64c-8.54,3.3-17.05,6.66-25.86,9.2-8.54,2.47-17.2,4.5-25.68,7.22-1.42.46-1.72,1-1.19,2.42a82.55,82.55,0,0,0,8,15.5c3.43,5.35,6.55,10.88,9.52,16.49A74.59,74.59,0,0,0,203.32,292c.7.83,1.15.89,2,.06a327.42,327.42,0,0,1,27.15-24.84c8-6.65,16.18-13.05,24.3-19.54a2.13,2.13,0,0,0,.79-2.89A58.48,58.48,0,0,0,252.48,234.53Zm34.79-21.1c1.31,1.86,2.72,3.8,4.07,5.77s1.87,1.92,3.56.43a18.67,18.67,0,0,0,3-4.33,4.46,4.46,0,0,1,2.92-2.12c4-.93,7.36-3.13,10.71-5.32a13,13,0,0,0,4.18-4.14,4.56,4.56,0,0,1,3.47-2.3,11,11,0,0,0,5.24-2.6,37.55,37.55,0,0,0,3.13-3c2.54-2.69,5.15-5.28,8.65-6.76a36.76,36.76,0,0,0,5.54-2.49,5.4,5.4,0,0,0,2.84-3.73,1.61,1.61,0,0,0-1.23-2,6.64,6.64,0,0,0-3.85.07c-3.11.86-5.45,2.95-7.82,5a3.58,3.58,0,0,1-2,1.14,28.17,28.17,0,0,0-17.25,7.89,2.52,2.52,0,0,1-1.95.76c-6.12-.2-11.12,2.4-15.28,6.6a5,5,0,0,1-4.49,1.78,7.8,7.8,0,0,0-5.25,1.07,1.65,1.65,0,0,0-.85,2.06A38.18,38.18,0,0,0,287.27,213.43Z" style="fill:#bfbfbf"/></svg>